<svg width="70" height="70" viewBox="0 0 70 70" fill="none" xmlns="http://www.w3.org/2000/svg">
<path d="M67.5828 34.0211L56.6453 12.1461C56.4635 11.7827 56.1839 11.4771 55.8381 11.2636C55.4923 11.0501 55.0939 10.9372 54.6875 10.9375H15.3125C14.9061 10.9372 14.5077 11.0501 14.1619 11.2636C13.8161 11.4771 13.5365 11.7827 13.3547 12.1461L2.41719 34.0211C2.26659 34.3255 2.188 34.6604 2.1875 35V50.3125C2.1875 51.4728 2.64844 52.5856 3.46891 53.4061C4.28938 54.2266 5.40218 54.6875 6.5625 54.6875H63.4375C64.5978 54.6875 65.7106 54.2266 66.5311 53.4061C67.3516 52.5856 67.8125 51.4728 67.8125 50.3125V35C67.812 34.6604 67.7334 34.3255 67.5828 34.0211ZM27.0867 15.3125L30.368 21.875H22.132L18.8508 15.3125H27.0867ZM40.2117 15.3125L43.493 21.875H35.257L31.9758 15.3125H40.2117ZM27.6008 32.8125L24.3195 26.25H32.5555L35.8367 32.8125H27.6008ZM40.7258 32.8125L37.4445 26.25H45.6805L48.9617 32.8125H40.7258ZM53.8508 32.8125L50.5695 26.25H58.8055L62.0867 32.8125H53.8508ZM56.618 21.875H48.382L45.1008 15.3125H53.3367L56.618 21.875ZM6.5625 35.5168L15.3125 18.0168L24.0625 35.5168V50.3125H6.5625V35.5168ZM28.4375 50.3125V37.1875H63.4375V50.3125H28.4375Z" fill="#001D49"/>
</svg>
